<svg width="1038" height="251" viewBox="0 0 1038 251" fill="none" xmlns="http://www.w3.org/2000/svg">
<path d="M1002.43 211.6C999.63 207.2 995.563 203.133 990.23 199.4C985.03 195.533 979.896 193.6 974.83 193.6C971.763 193.6 968.63 194 965.43 194.8C967.963 190.8 971.096 187.733 974.83 185.6C978.696 183.333 982.963 182.2 987.63 182.2C996.83 182.2 1006.7 186.6 1017.23 195.4V145.2L979.83 154.6C977.03 154.6 975.03 154.267 973.83 153.6C972.763 152.933 972.096 152.133 971.83 151.2C971.696 150.267 971.63 148.6 971.63 146.2V119.6C971.63 114.4 971.296 110.333 970.63 107.4C969.963 104.467 968.496 101.867 966.23 99.6C975.03 98 982.363 95.8667 988.23 93.2C994.23 90.5333 1000.03 87.5333 1005.63 84.2C1009.1 82.0667 1011.23 81 1012.03 81C1014.03 81.1333 1016.76 82.4 1020.23 84.8C1023.83 87.0667 1027.23 90.2 1030.43 94.2C1033.76 98.0667 1036.16 102.4 1037.63 107.2C1035.23 109.733 1033.1 113.4 1031.23 118.2C1028.7 124.6 1026.23 129.2 1023.83 132C1021.56 134.667 1018.36 136 1014.23 136C1013.16 136 1012.36 135.8 1011.83 135.4C1011.3 135 1011.03 134.533 1011.03 134C1011.03 133.333 1011.43 133 1012.23 133C1013.16 133 1013.9 133.133 1014.43 133.4C1015.5 133.667 1016.43 132.6 1017.23 130.2C1018.16 127.667 1018.63 124.667 1018.63 121.2C1018.63 114.267 1016.5 108.133 1012.23 102.8C1008.1 97.4667 1001.23 95 991.63 95.4V147.4L1026.63 139C1027.16 138.867 1028.03 138.8 1029.23 138.8C1031.36 138.8 1033.23 139.333 1034.83 140.4C1036.43 141.333 1037.23 142.867 1037.23 145V186.4C1031.23 189.6 1024.83 193.6 1018.03 198.4C1011.36 203.2 1006.16 207.6 1002.43 211.6Z" fill="white"/>
<path d="M907.692 213C905.692 210.733 903.892 208.533 902.292 206.4C898.292 201.333 894.826 197.267 891.892 194.2C888.959 191.133 885.492 188.267 881.492 185.6V142.6C881.492 138.333 887.292 133.667 898.892 128.6C910.626 123.533 922.092 119.6 933.292 116.8V106.6C927.692 101.133 920.692 98.4 912.292 98.4C907.626 98.4 903.159 99.2 898.892 100.8C894.626 102.4 891.159 104.467 888.492 107C885.826 109.533 884.492 112 884.492 114.4C884.492 116.267 884.759 118.067 885.292 119.8C885.426 120.067 885.492 120.533 885.492 121.2C885.492 122.533 885.025 123.2 884.092 123.2C883.559 123.2 883.092 122.733 882.692 121.8C882.159 120.733 881.892 119.4 881.892 117.8C881.892 116.467 882.292 114.333 883.092 111.4C883.492 110.2 884.226 109 885.292 107.8C886.492 106.467 887.826 105.133 889.292 103.8C892.092 101.267 894.626 98.6667 896.892 96C899.292 93.3333 901.759 90 904.292 86C906.292 82.6667 909.426 81 913.692 81C916.492 81 919.625 81.7333 923.092 83.2C926.559 84.5333 931.225 86.7333 937.092 89.8C947.092 94.8667 954.626 98.1333 959.692 99.6C955.426 104 953.292 111.733 953.292 122.8V180C953.292 184.667 954.092 188.267 955.692 190.8C957.426 193.2 959.159 194.867 960.892 195.8C966.892 191.8 970.026 188 970.292 184.4C970.959 185.467 971.292 186.533 971.292 187.6C971.292 189.467 970.359 191.333 968.492 193.2C966.759 194.933 963.959 197.2 960.092 200C956.625 202.533 953.759 204.8 951.492 206.8C949.359 208.667 947.626 210.733 946.292 213C940.959 208.467 936.626 203.333 933.292 197.6V175.4L928.492 182C924.626 187.333 920.626 192.933 916.492 198.8C912.492 204.667 909.559 209.4 907.692 213ZM933.292 168.6V120.2C926.626 122.2 919.626 124.867 912.292 128.2C905.092 131.4 901.492 134.133 901.492 136.4V175.8L916.092 192.4L933.292 168.6Z" fill="white"/>
<path d="M812.225 251C811.158 247.4 808.425 244.2 804.025 241.4C799.758 238.6 795.292 237.2 790.625 237.2V236C793.825 233.2 796.025 230.667 797.225 228.4C798.558 226.133 799.225 223.467 799.225 220.4V108.4C799.225 103.333 797.825 100.2 795.025 99C798.892 97.4 802.958 95 807.225 91.8C811.492 88.4667 815.492 84.8667 819.225 81V122.4L842.625 81L850.425 85.6C852.025 86.5333 855.292 88.4667 860.225 91.4C865.292 94.2 869.692 96.5333 873.425 98.4C871.825 101.333 870.825 104.667 870.425 108.4C870.158 112 870.025 117.733 870.025 125.6V162.8C870.025 169.333 867.758 175.067 863.225 180C858.825 184.8 853.692 188.733 847.825 191.8C841.958 194.733 835.158 197.667 827.425 200.6L819.425 204L819.225 203.8V218C819.225 225.333 821.758 230.6 826.825 233.8C829.625 231.8 831.825 229.867 833.425 228C835.158 226.267 836.092 224.4 836.225 222.4C836.892 223.467 837.225 224.533 837.225 225.6C837.225 227.467 836.292 229.267 834.425 231C832.692 232.867 829.892 235.2 826.025 238C822.558 240.533 819.692 242.733 817.425 244.6C815.292 246.6 813.558 248.733 812.225 251ZM819.225 198.2C826.425 195.667 833.358 192.4 840.025 188.4C846.692 184.4 850.025 180.133 850.025 175.6V111.6L835.825 104.4L819.225 134.2V198.2Z" fill="white"/>
<path d="M747.2 213C742.667 209.8 736 206.667 727.2 203.6C718.533 200.4 709.6 197.6 700.4 195.2C702.8 191.867 704.267 189.067 704.8 186.8C705.333 184.4 705.6 181.267 705.6 177.4V118.6C705.6 114.733 705.267 111.133 704.6 107.8C704.067 104.467 702.533 101.667 700 99.4C712.133 96.4667 721.267 93.6667 727.4 91.0001C733.667 88.2 738.067 85.9334 740.6 84.2C743.267 82.3334 745.067 81.2 746 80.8C748.4 82.5334 754 85.4001 762.8 89.4C771.6 93.2667 779.467 96.2667 786.4 98.4C786.133 98.6667 785.4 99.3334 784.2 100.4C783 101.467 782.067 102.8 781.4 104.4C780.733 106 780.4 107.933 780.4 110.2V174.8C780.4 177.867 780.733 180.533 781.4 182.8C782.067 185.067 783.8 187.6 786.6 190.4C778.467 194 771.8 197.267 766.6 200.2C761.4 203.133 754.933 207.4 747.2 213ZM760.4 196.6V103.2L738 91.6L725.8 96V190.8L752.4 202.2L760.4 196.6Z" fill="white"/>
<path d="M667.825 236C667.825 235.333 667.892 234.4 668.025 233.2C668.292 232 668.425 230.933 668.425 230V214.4C665.225 214.667 662.892 214.8 661.425 214.8C651.958 214.8 642.892 212.467 634.225 207.8C625.692 203.133 618.758 196.533 613.425 188C608.225 179.333 605.625 169.467 605.625 158.4V81.2001C613.358 77.6001 620.025 72.6668 625.625 66.4001V169.4C625.625 177.8 627.758 185 632.025 191C636.292 196.867 641.625 201.333 648.025 204.4C654.425 207.467 660.825 209 667.225 209H668.425V201C664.425 195.8 659.692 191.067 654.225 186.8C659.425 183.333 664.158 178.733 668.425 173L668.225 76.8001L668.425 26.0001V22.0001C668.425 16.9334 669.558 12.1334 671.825 7.60009C674.225 2.93343 679.225 0.600098 686.825 0.600098C681.625 5.26676 677.558 10.8668 674.625 17.4001C671.692 23.8001 670.225 33.3334 670.225 46.0001V56.0001C671.158 55.4668 672.758 54.2001 675.025 52.2001C677.425 50.2001 679.358 48.6001 680.825 47.4001C686.025 42.8668 689.692 39.9334 691.825 38.6001C692.225 38.3334 692.892 38.2001 693.825 38.2001C697.025 38.2001 700.558 41.0668 704.425 46.8001C708.425 52.5334 711.625 59.8668 714.025 68.8001C712.158 69.6001 710.358 71.0668 708.625 73.2001C707.025 75.3334 705.158 78.8668 703.025 83.8001C700.358 90.3334 697.892 94.9334 695.625 97.6001C693.358 100.267 690.158 101.6 686.025 101.6C684.958 101.6 684.158 101.4 683.625 101C683.092 100.6 682.825 100.133 682.825 99.6001C682.825 98.6668 683.358 98.2001 684.425 98.2001C685.225 98.2001 686.225 98.4001 687.425 98.8001C688.758 99.0668 689.692 99.1334 690.225 99.0001C692.625 98.6001 694.692 96.8668 696.425 93.8001C698.158 90.6001 699.025 87.4001 699.025 84.2001C699.025 79.8001 698.225 75.0001 696.625 69.8001C695.025 64.6001 692.825 60.2001 690.025 56.6001C687.225 52.8668 684.092 50.9334 680.625 50.8001L670.225 58.0001V172.8C674.625 178.533 679.492 183.2 684.825 186.8C679.892 190.4 675.025 195.133 670.225 201V208.8C675.558 208.4 680.692 207 685.625 204.6C690.692 202.2 695.158 198.933 699.025 194.8L699.425 195.2C695.958 200.4 691.692 204.6 686.625 207.8C681.558 210.867 676.092 212.933 670.225 214V230C670.225 230.933 670.358 232 670.625 233.2C671.025 234.4 671.225 235.333 671.225 236C671.225 236.667 671.025 237.2 670.625 237.6C670.358 238 670.025 238.2 669.625 238.2C669.092 238.2 668.625 238 668.225 237.6C667.958 237.2 667.825 236.667 667.825 236ZM636.625 185.6C638.625 182.133 639.825 177.867 640.225 172.8C640.758 167.733 641.025 162.2 641.025 156.2V63.4001C641.025 59.6668 642.092 56.2001 644.225 53.0001C646.358 49.8001 649.358 46.4668 653.225 43.0001C652.158 42.8668 650.425 42.8001 648.025 42.8001C640.025 42.8001 631.692 44.2001 623.025 47.0001C614.492 49.8001 607.158 54.0668 601.025 59.8001C594.892 65.5334 591.558 72.5334 591.025 80.8001L590.825 81.0001C590.692 79.9334 590.625 78.4001 590.625 76.4001C590.625 63.6001 594.692 54.2668 602.825 48.4001C610.958 42.5334 622.692 39.6001 638.025 39.6001C644.692 39.6001 650.692 39.9334 656.025 40.6001V149C656.025 156.733 654.292 164 650.825 170.8C647.492 177.467 642.758 182.4 636.625 185.6Z" fill="white"/>
<path d="M523.166 213C518.099 208.467 512.099 204.133 505.166 200C498.366 195.867 491.832 193 485.566 191.4C486.766 190.067 487.699 188.267 488.366 186C489.032 183.6 489.366 181.067 489.366 178.4V115.4C489.366 112.467 489.032 109.867 488.366 107.6C487.832 105.2 486.632 102.667 484.766 100C491.032 98.6667 497.032 96.8 502.766 94.4C508.499 92 514.632 89.1333 521.166 85.8C527.699 82.7333 531.099 81.1333 531.366 81C534.432 86.2 537.232 90.7333 539.766 94.6C542.299 98.3333 545.366 102.267 548.966 106.4L543.166 112.4C541.966 113.733 537.499 118.4 529.766 126.4C522.032 134.267 515.232 141.8 509.366 149V181.4C522.032 191.267 531.166 197.733 536.766 200.8C537.699 200.267 539.632 199.2 542.566 197.6C545.499 196 547.699 194.467 549.166 193C550.766 191.533 551.566 190 551.566 188.4C552.232 189.467 552.566 190.533 552.566 191.6C552.566 193.333 551.032 195.333 547.966 197.6C544.899 199.867 540.632 202.467 535.166 205.4C528.632 209.133 524.632 211.667 523.166 213ZM529.766 119L517.166 94L509.366 97.2V142.4L529.766 119Z" fill="white"/>
<path d="M429.52 213C427.52 210.733 425.72 208.533 424.12 206.4C420.12 201.333 416.654 197.267 413.72 194.2C410.787 191.133 407.32 188.267 403.32 185.6V130.6C403.32 125.933 408.52 119.467 418.92 111.2C429.454 102.8 439.387 96.0001 448.72 90.8001V73.6001C448.72 66.8001 447.72 60.3334 445.72 54.2001C443.72 47.9334 441.32 43.4001 438.52 40.6001C451.454 51.4001 460.787 65.2668 466.52 82.2001C466.787 75.2668 467.92 69.2668 469.92 64.2001C472.054 59.0001 475.454 56.0668 480.12 55.4001C476.254 57.1334 473.387 61.0668 471.52 67.2001C469.654 73.3334 468.72 80.6001 468.72 89.0001V180C468.72 184.667 469.52 188.267 471.12 190.8C472.854 193.2 474.587 194.867 476.32 195.8C482.32 191.8 485.454 188 485.72 184.4C486.387 185.467 486.72 186.533 486.72 187.6C486.72 189.467 485.787 191.333 483.92 193.2C482.187 194.933 479.387 197.2 475.52 200C472.054 202.533 469.187 204.8 466.92 206.8C464.787 208.667 463.054 210.733 461.72 213C456.387 208.467 452.054 203.333 448.72 197.6V181C440.987 192.333 434.587 203 429.52 213ZM448.72 174.4V93.6001C446.854 95.2001 445.32 96.4001 444.12 97.2001C437.854 102.267 432.787 106.733 428.92 110.6C425.187 114.467 423.32 118.067 423.32 121.4V179.8L436.12 194.2L448.72 174.4Z" fill="white"/>
<path d="M301.638 213C299.638 210.733 297.837 208.533 296.237 206.4C292.237 201.333 288.771 197.267 285.837 194.2C282.904 191.133 279.438 188.267 275.438 185.6V142.6C275.438 138.333 281.237 133.667 292.837 128.6C304.571 123.533 316.037 119.6 327.237 116.8V106.6C321.637 101.133 314.637 98.4 306.237 98.4C301.571 98.4 297.104 99.2 292.837 100.8C288.571 102.4 285.104 104.467 282.438 107C279.771 109.533 278.438 112 278.438 114.4C278.438 116.267 278.704 118.067 279.237 119.8C279.371 120.067 279.438 120.533 279.438 121.2C279.438 122.533 278.971 123.2 278.038 123.2C277.504 123.2 277.038 122.733 276.638 121.8C276.104 120.733 275.837 119.4 275.837 117.8C275.837 116.467 276.238 114.333 277.038 111.4C277.438 110.2 278.171 109 279.237 107.8C280.437 106.467 281.771 105.133 283.237 103.8C286.037 101.267 288.571 98.6667 290.837 96C293.237 93.3333 295.704 90 298.237 86C300.237 82.6667 303.371 81 307.638 81C310.438 81 313.571 81.7333 317.038 83.2C320.504 84.5333 325.171 86.7333 331.038 89.8C341.038 94.8667 348.571 98.1333 353.638 99.6C349.371 104 347.237 111.733 347.237 122.8V180C347.237 184.667 348.038 188.267 349.638 190.8C351.371 193.2 353.104 194.867 354.837 195.8C360.837 191.8 363.971 188 364.238 184.4C364.904 185.467 365.237 186.533 365.237 187.6C365.237 189.467 364.304 191.333 362.438 193.2C360.704 194.933 357.904 197.2 354.038 200C350.571 202.533 347.704 204.8 345.438 206.8C343.304 208.667 341.571 210.733 340.237 213C334.904 208.467 330.571 203.333 327.237 197.6V175.4L322.438 182C318.571 187.333 314.571 192.933 310.438 198.8C306.438 204.667 303.504 209.4 301.638 213ZM327.237 168.6V120.2C320.571 122.2 313.571 124.867 306.237 128.2C299.037 131.4 295.438 134.133 295.438 136.4V175.8L310.038 192.4L327.237 168.6Z" fill="white"/>
<path d="M232.312 211.6C229.513 207.2 225.446 203.133 220.113 199.4C214.913 195.533 209.779 193.6 204.712 193.6C201.646 193.6 198.513 194 195.312 194.8C197.846 190.8 200.979 187.733 204.712 185.6C208.579 183.333 212.846 182.2 217.512 182.2C226.712 182.2 236.579 186.6 247.113 195.4V145.2L209.712 154.6C206.912 154.6 204.912 154.267 203.712 153.6C202.646 152.933 201.979 152.133 201.712 151.2C201.579 150.267 201.512 148.6 201.512 146.2V119.6C201.512 114.4 201.179 110.333 200.512 107.4C199.846 104.467 198.379 101.867 196.113 99.6C204.913 98 212.246 95.8667 218.113 93.2C224.113 90.5333 229.912 87.5333 235.512 84.2C238.979 82.0667 241.113 81 241.913 81C243.913 81.1333 246.646 82.4 250.113 84.8C253.713 87.0667 257.113 90.2 260.312 94.2C263.646 98.0667 266.046 102.4 267.513 107.2C265.113 109.733 262.979 113.4 261.113 118.2C258.579 124.6 256.113 129.2 253.713 132C251.446 134.667 248.246 136 244.113 136C243.046 136 242.246 135.8 241.713 135.4C241.179 135 240.913 134.533 240.913 134C240.913 133.333 241.313 133 242.113 133C243.046 133 243.779 133.133 244.312 133.4C245.379 133.667 246.313 132.6 247.113 130.2C248.046 127.667 248.513 124.667 248.513 121.2C248.513 114.267 246.379 108.133 242.113 102.8C237.979 97.4667 231.112 95 221.512 95.4V147.4L256.513 139C257.046 138.867 257.913 138.8 259.113 138.8C261.246 138.8 263.112 139.333 264.712 140.4C266.312 141.333 267.113 142.867 267.113 145V186.4C261.113 189.6 254.713 193.6 247.913 198.4C241.246 203.2 236.046 207.6 232.312 211.6Z" fill="white"/>
<path d="M137.575 213C135.575 210.733 133.775 208.533 132.175 206.4C128.175 201.333 124.708 197.267 121.775 194.2C118.842 191.133 115.375 188.267 111.375 185.6V142.6C111.375 138.333 117.175 133.667 128.775 128.6C140.508 123.533 151.975 119.6 163.175 116.8V106.6C157.575 101.133 150.575 98.4 142.175 98.4C137.508 98.4 133.042 99.2 128.775 100.8C124.508 102.4 121.042 104.467 118.375 107C115.708 109.533 114.375 112 114.375 114.4C114.375 116.267 114.642 118.067 115.175 119.8C115.308 120.067 115.375 120.533 115.375 121.2C115.375 122.533 114.908 123.2 113.975 123.2C113.442 123.2 112.975 122.733 112.575 121.8C112.042 120.733 111.775 119.4 111.775 117.8C111.775 116.467 112.175 114.333 112.975 111.4C113.375 110.2 114.108 109 115.175 107.8C116.375 106.467 117.708 105.133 119.175 103.8C121.975 101.267 124.508 98.6667 126.775 96C129.175 93.3333 131.642 90 134.175 86C136.175 82.6667 139.308 81 143.575 81C146.375 81 149.508 81.7333 152.975 83.2C156.442 84.5333 161.108 86.7333 166.975 89.8C176.975 94.8667 184.508 98.1333 189.575 99.6C185.308 104 183.175 111.733 183.175 122.8V180C183.175 184.667 183.975 188.267 185.575 190.8C187.308 193.2 189.042 194.867 190.775 195.8C196.775 191.8 199.908 188 200.175 184.4C200.842 185.467 201.175 186.533 201.175 187.6C201.175 189.467 200.242 191.333 198.375 193.2C196.642 194.933 193.842 197.2 189.975 200C186.508 202.533 183.642 204.8 181.375 206.8C179.242 208.667 177.508 210.733 176.175 213C170.842 208.467 166.508 203.333 163.175 197.6V175.4L158.375 182C154.508 187.333 150.508 192.933 146.375 198.8C142.375 204.667 139.442 209.4 137.575 213ZM163.175 168.6V120.2C156.508 122.2 149.508 124.867 142.175 128.2C134.975 131.4 131.375 134.133 131.375 136.4V175.8L145.975 192.4L163.175 168.6Z" fill="white"/>
<path d="M77.2 236C77.2 235.333 77.2667 234.4 77.4 233.2C77.6667 232 77.8 230.933 77.8 230V214.4C74.6 214.667 72.2667 214.8 70.8 214.8C61.3333 214.8 52.2667 212.467 43.6 207.8C35.0667 203.133 28.1333 196.533 22.8 188C17.6 179.333 15 169.467 15 158.4V81.2001C22.7333 77.6001 29.4 72.6668 35 66.4001V169.4C35 177.8 37.1333 185 41.4 191C45.6667 196.867 51 201.333 57.4 204.4C63.8 207.467 70.2 209 76.6 209H77.8V201C73.8 195.8 69.0667 191.067 63.6 186.8C68.8 183.333 73.5333 178.733 77.8 173L77.6 76.8001L77.8 26.0001V22.0001C77.8 16.9334 78.9333 12.1334 81.2 7.60009C83.6 2.93343 88.6 0.600098 96.2 0.600098C91 5.26676 86.9333 10.8668 84 17.4001C81.0667 23.8001 79.6 33.3334 79.6 46.0001V56.0001C80.5333 55.4668 82.1333 54.2001 84.4 52.2001C86.8 50.2001 88.7333 48.6001 90.2 47.4001C95.4 42.8668 99.0667 39.9334 101.2 38.6001C101.6 38.3334 102.267 38.2001 103.2 38.2001C106.4 38.2001 109.933 41.0668 113.8 46.8001C117.8 52.5334 121 59.8668 123.4 68.8001C121.533 69.6001 119.733 71.0668 118 73.2001C116.4 75.3334 114.533 78.8668 112.4 83.8001C109.733 90.3334 107.267 94.9334 105 97.6001C102.733 100.267 99.5333 101.6 95.4 101.6C94.3333 101.6 93.5333 101.4 93 101C92.4667 100.6 92.2 100.133 92.2 99.6001C92.2 98.6668 92.7333 98.2001 93.8 98.2001C94.6 98.2001 95.6 98.4001 96.8 98.8001C98.1333 99.0668 99.0667 99.1334 99.6 99.0001C102 98.6001 104.067 96.8668 105.8 93.8001C107.533 90.6001 108.4 87.4001 108.4 84.2001C108.4 79.8001 107.6 75.0001 106 69.8001C104.4 64.6001 102.2 60.2001 99.4 56.6001C96.6 52.8668 93.4667 50.9334 90 50.8001L79.6 58.0001V172.8C84 178.533 88.8667 183.2 94.2 186.8C89.2667 190.4 84.4 195.133 79.6 201V208.8C84.9333 208.4 90.0667 207 95 204.6C100.067 202.2 104.533 198.933 108.4 194.8L108.8 195.2C105.333 200.4 101.067 204.6 96 207.8C90.9333 210.867 85.4667 212.933 79.6 214V230C79.6 230.933 79.7333 232 80 233.2C80.4 234.4 80.6 235.333 80.6 236C80.6 236.667 80.4 237.2 80 237.6C79.7333 238 79.4 238.2 79 238.2C78.4667 238.2 78 238 77.6 237.6C77.3333 237.2 77.2 236.667 77.2 236ZM46 185.6C48 182.133 49.2 177.867 49.6 172.8C50.1333 167.733 50.4 162.2 50.4 156.2V63.4001C50.4 59.6668 51.4667 56.2001 53.6 53.0001C55.7333 49.8001 58.7333 46.4668 62.6 43.0001C61.5333 42.8668 59.8 42.8001 57.4 42.8001C49.4 42.8001 41.0667 44.2001 32.4 47.0001C23.8667 49.8001 16.5333 54.0668 10.4 59.8001C4.26667 65.5334 0.933333 72.5334 0.4 80.8001L0.2 81.0001C0.0666667 79.9334 0 78.4001 0 76.4001C0 63.6001 4.06667 54.2668 12.2 48.4001C20.3333 42.5334 32.0667 39.6001 47.4 39.6001C54.0667 39.6001 60.0667 39.9334 65.4 40.6001V149C65.4 156.733 63.6667 164 60.2 170.8C56.8667 177.467 52.1333 182.4 46 185.6Z" fill="white"/>
</svg>
